<?xml version="1.0" encoding="UTF-8" standalone="no"?><!DOCTYPE svg PUBLIC "-//W3C//DTD SVG 1.1//EN" "http://www.w3.org/Graphics/SVG/1.1/DTD/svg11.dtd"><svg width="100%" height="100%" viewBox="0 0 6053 1697" version="1.1" xmlns="http://www.w3.org/2000/svg" xmlns:xlink="http://www.w3.org/1999/xlink" xml:space="preserve" xmlns:serif="http://www.serif.com/" style="fill-rule:evenodd;clip-rule:evenodd;stroke-linejoin:round;stroke-miterlimit:2;"><path d="M1923.06,1244.6l0,-1235.46c36.912,16.707 63.037,35.675 91.256,39.632c43.506,6.1 94.894,16.125 131.619,-0.513c134.137,-60.762 269.475,-55.856 404.918,-19.987c165.932,43.968 246.494,169.525 251.75,329.562c9.619,292.738 2.738,586.013 2.738,886.569l-336.319,0c0,-59.056 0.006,-116.544 0,-174.044c-0.037,-207.237 -1.306,-414.481 0.506,-621.687c0.657,-74.744 -27.087,-121.682 -105.275,-123.1c-83.206,-1.5 -113.925,46.106 -113.256,126.062c1.894,224.488 0.588,449.025 0.55,673.513c-0.012,37.368 0,74.75 0,119.456l-328.487,0Z" style="fill:#603812;"/><path d="M5729.54,720.469c-87.444,0.65 -187.475,-42.6 -248.213,58.775c-15.262,25.475 -1.381,100.818 16.256,107.425c49.125,18.381 111.525,27.5 160.863,13.212c82.694,-23.931 100.594,-92.725 71.094,-179.412m102.3,397.5c-175.95,147.95 -348.144,177.044 -498.575,88.081c-133.663,-79.037 -212.025,-261.494 -172.175,-445.894c64.768,-299.806 301.768,-334.381 553.843,-329.681c13.313,-87.881 -36.606,-105.069 -96.862,-106.244c-106.75,-2.106 -213.563,-0.606 -329.025,-0.606l0,-323.625c171.181,8.694 346.562,6.063 518.212,30.019c134.694,18.787 232.963,118.062 238.232,253.331c12.3,315.494 3.925,631.781 3.925,960.806c-73.163,-42.443 -143.207,-83.056 -217.575,-126.187" style="fill:#603812;"/><path d="M3568.57,720.469c-89.118,0.612 -189.525,-42.525 -250.187,59.062c-15.306,25.619 1.212,103.894 16.919,108.256c54.012,15.019 118.187,21.7 171.043,6.182c81.338,-23.882 88.775,-93.157 62.225,-173.5m320.619,526.968c-82.306,-49.087 -149.456,-89.137 -218.687,-130.443c-154.469,140 -323.038,191.25 -510.657,80.85c-132.537,-77.994 -201.862,-269.382 -158.6,-449.769c70.407,-293.644 306.819,-319.181 553.85,-318.894c11.163,-91.719 -43.931,-104.506 -106.531,-105.375c-106.087,-1.481 -212.206,-0.406 -325.481,-0.406l0,-305.706c166.881,0 329.087,-11.469 488.856,3.306c151.425,13.981 266.975,120.694 273.238,268.631c13.212,312.475 4.012,625.9 4.012,957.806" style="fill:#603812;"/><path d="M4038.04,3.769c112.975,0 208.988,-4.156 304.119,3.019c22.762,1.706 55.231,37.863 61.844,63.644c38.568,150.512 70.812,302.625 105.062,454.25c8.738,38.712 16.95,77.581 50.694,116.437c11.981,-62.587 22.4,-125.518 36.256,-187.7c28.5,-128.018 56.325,-256.275 90.5,-382.806c7.013,-25.962 39.275,-62.1 62.144,-63.825c95.444,-7.175 191.756,-3.019 299.581,-3.019c-11.162,45.444 -17.494,77.913 -27.137,109.35c-104.357,340.357 -213.2,679.407 -311.419,1021.51c-26.838,93.443 -65.65,134.325 -162.757,118.45c-39.95,-6.544 -81.856,-1.094 -125.906,-1.094c-126.756,-413.15 -251.362,-819.194 -382.981,-1248.21" style="fill:#603812;"/><path d="M678.9,874.589c-223.275,225.319 -438.55,442.594 -678.9,685.137c13.013,-250.181 11.875,-479.293 41.681,-704.287c16.869,-127.406 108.413,-230.963 229.038,-290.975c27.112,-13.475 81.762,-10.419 102.406,8.419c106.731,97.362 206.544,202.35 305.775,301.706" style="fill:#c39a6b;"/><path d="M750.711,828.397c-225.782,-223.512 -443.582,-439.143 -676.519,-669.756c249.925,12.444 489.675,-32.675 724.531,38.75c50.938,15.488 99.1,49.456 140.788,84.238c167.968,140.006 169.518,187.068 19.931,337.781c-70.506,71 -141.413,141.6 -208.731,208.987" style="fill:#603812;"/><path d="M1460.85,223.072c0,210.219 10.619,403.719 -3.125,595.5c-12.588,175.725 -106.981,312.206 -271.044,388.125c-24.95,11.562 -74.737,3.737 -95.087,-14.838c-104.319,-95.112 -202.763,-196.675 -292.413,-285.268c219.594,-226.838 433.944,-448.269 661.669,-683.519" style="fill:#c39a6b;"/><path d="M1373.31,1619.44c-210.1,-10.057 -433.425,-8.275 -653.1,-35.738c-138.088,-17.262 -239.244,-119.881 -304.538,-243.681c-13.569,-25.694 -4.269,-81.256 15.95,-103.931c91.613,-102.844 190.913,-198.832 277.963,-287.607c223.306,225.725 441.331,446.144 663.725,670.957" style="fill:#603812;"/><rect x="3801.87" y="1412.54" width="26.706" height="206.906" style="fill:#231f20;"/><path d="M4049.59,1528.57c-1.531,-28.856 -3.369,-63.543 -3.063,-89.331l-0.925,0c-7.062,24.25 -15.656,50.038 -26.087,78.588l-36.538,100.387l-20.262,0l-33.463,-98.544c-9.818,-29.168 -18.106,-55.875 -23.943,-80.431l-0.619,0c-0.606,25.788 -2.144,60.475 -3.988,91.481l-5.518,88.719l-25.488,0l14.425,-206.906l34.088,0l35.3,100.075c8.593,25.475 15.656,48.194 20.875,69.687l0.918,0c5.219,-20.875 12.588,-43.593 21.8,-69.687l36.838,-100.075l34.068,0l12.9,206.906l-26.093,0l-5.225,-90.869Z" style="fill:#231f20;fill-rule:nonzero;"/><path d="M4148.73,1514.76c5.831,1.531 13.2,2.15 22.1,2.15c32.238,0 51.881,-15.656 51.881,-44.206c0,-27.325 -19.337,-40.525 -48.812,-40.525c-11.663,0 -20.563,0.925 -25.169,2.15l0,80.431Zm-26.706,-99.775c12.894,-2.15 29.775,-3.994 51.262,-3.994c26.4,0 45.744,6.144 58.019,17.194c11.363,9.831 18.113,24.869 18.113,43.287c0,18.725 -5.519,33.463 -15.957,44.207c-14.125,15.043 -37.15,22.718 -63.243,22.718c-7.982,0 -15.35,-0.312 -21.488,-1.843l0,82.887l-26.706,0l0,-204.456Z" style="fill:#231f20;fill-rule:nonzero;"/><path d="M4301.6,1517.22c0,44.206 23.944,83.806 66,83.806c42.369,0 66.306,-38.988 66.306,-85.956c0,-41.138 -21.487,-84.113 -66,-84.113c-44.206,0 -66.306,40.825 -66.306,86.263m160.55,-3.375c0,71.218 -43.281,108.975 -96.088,108.975c-54.643,0 -93.012,-42.363 -93.012,-104.982c0,-65.7 40.825,-108.675 96.087,-108.675c56.482,0 93.013,43.282 93.013,104.682" style="fill:#231f20;fill-rule:nonzero;"/><path d="M4523.53,1509.54l27.325,0c28.544,0 46.662,-15.657 46.662,-39.294c0,-26.713 -19.343,-38.375 -47.581,-38.688c-12.894,0 -22.112,1.238 -26.406,2.463l0,75.519Zm-26.706,-94.244c13.512,-2.763 32.843,-4.306 51.268,-4.306c28.55,0 46.969,5.218 59.863,16.893c10.437,9.207 16.269,23.325 16.269,39.294c0,27.319 -17.194,45.431 -38.988,52.8l0,0.919c15.969,5.525 25.475,20.262 30.394,41.75c6.75,28.856 11.662,48.812 15.962,56.794l-27.631,0c-3.375,-5.838 -7.981,-23.638 -13.812,-49.425c-6.138,-28.55 -17.194,-39.294 -41.45,-40.219l-25.169,0l0,89.644l-26.706,0l0,-204.144Z" style="fill:#231f20;fill-rule:nonzero;"/><path d="M4704.03,1435.25l-62.931,0l0,-22.719l153.187,0l0,22.719l-63.244,0l0,184.194l-27.012,0l0,-184.194Z" style="fill:#231f20;fill-rule:nonzero;"/><rect x="4885.43" y="1389.2" width="20.569" height="306.987" style="fill:#231f20;"/><path d="M5127.94,1522.43l-80.431,0l0,74.6l89.65,0l0,22.407l-116.35,0l0,-206.907l111.743,0l0,22.413l-85.043,0l0,65.387l80.431,0l0,22.1Z" style="fill:#231f20;fill-rule:nonzero;"/><path d="M5285.1,1619.44l-26.394,-45.738c-10.75,-17.5 -17.5,-28.862 -23.95,-40.837l-0.606,0c-5.838,11.975 -11.675,23.031 -22.413,41.137l-24.869,45.438l-30.7,0l63.244,-104.681l-60.787,-102.226l31.006,0.001l27.319,48.5c7.675,13.506 13.512,23.943 19.043,35l0.913,0c5.837,-12.282 11.05,-21.794 18.725,-35l28.25,-48.5l30.7,0l-62.944,100.687l64.469,106.219l-31.006,0Z" style="fill:#231f20;fill-rule:nonzero;"/><path d="M5373.81,1514.76c5.837,1.531 13.193,2.15 22.106,2.15c32.225,0 51.881,-15.656 51.881,-44.206c0,-27.325 -19.35,-40.525 -48.819,-40.525c-11.668,0 -20.568,0.925 -25.168,2.15l0,80.431Zm-26.707,-99.775c12.888,-2.15 29.769,-3.994 51.269,-3.994c26.4,0 45.738,6.144 58.019,17.194c11.35,9.831 18.112,24.869 18.112,43.287c0,18.725 -5.525,33.463 -15.962,44.207c-14.125,15.043 -37.15,22.718 -63.244,22.718c-7.987,0 -15.35,-0.312 -21.487,-1.843l0,82.887l-26.707,0l0,-204.456Z" style="fill:#231f20;fill-rule:nonzero;"/><path d="M5526.68,1517.22c0,44.206 23.938,83.806 66.007,83.806c42.356,0 66.306,-38.988 66.306,-85.956c0,-41.138 -21.5,-84.113 -66.006,-84.113c-44.2,0 -66.307,40.825 -66.307,86.263m160.557,-3.375c0,71.218 -43.282,108.975 -96.094,108.975c-54.638,0 -93.013,-42.363 -93.013,-104.982c0,-65.7 40.832,-108.675 96.094,-108.675c56.481,0 93.013,43.282 93.013,104.682" style="fill:#231f20;fill-rule:nonzero;"/><path d="M5748.62,1509.54l27.319,0c28.55,0 46.668,-15.657 46.668,-39.294c0,-26.713 -19.35,-38.375 -47.581,-38.688c-12.906,0 -22.112,1.238 -26.406,2.463l0,75.519Zm-26.706,-94.244c13.512,-2.763 32.843,-4.306 51.268,-4.306c28.55,0 46.969,5.218 59.863,16.893c10.437,9.207 16.269,23.325 16.269,39.294c0,27.319 -17.2,45.431 -38.988,52.8l0,0.919c15.969,5.525 25.475,20.262 30.381,41.75c6.763,28.856 11.675,48.812 15.969,56.794l-27.625,0c-3.381,-5.838 -7.981,-23.638 -13.819,-49.425c-6.137,-28.55 -17.187,-39.294 -41.443,-40.219l-25.169,0l0,89.644l-26.706,0l0,-204.144Z" style="fill:#231f20;fill-rule:nonzero;"/><path d="M5929.11,1435.25l-62.938,0l0,-22.719l153.181,0l0,22.719l-63.231,0l0,184.194l-27.012,0l0,-184.194Z" style="fill:#231f20;fill-rule:nonzero;"/></svg>